<?xml version="1.0" encoding="UTF-8"?>
<svg id="Layer_2" data-name="Layer 2" xmlns="http://www.w3.org/2000/svg" viewBox="0 0 512.2257 513.0367">
  <defs>
    <style>
      .cls-1 {
        fill: #00dcb2;
      }

      .cls-1, .cls-2 {
        stroke-width: 0px;
      }

      .cls-2 {
        fill: #fdfefe;
      }
    </style>
  </defs>
  <g id="Layer_1-2" data-name="Layer 1">
    <path class="cls-1" d="M.1355,256.4024c.0003-41.9784-.364-83.9608.101-125.934C.7184,86.9574,18.1122,51.4652,53.1191,25.2109,75.5615,8.3797,101.2688.3293,129.1347.2418c84.6218-.2655,169.2463-.3733,253.8673-.0037,62.1818.2716,113.675,42.9866,126.3674,103.971,1.7293,8.3086,2.5514,16.803,2.5561,25.3047.0464,84.6231.7852,169.2553-.2428,253.8659-.6596,54.2972-26.6728,94.0635-75.7411,117.9201-16.8236,8.1795-35.0345,11.6073-53.7349,11.6255-84.1229.0815-168.2464.2146-252.3686-.0236-62.4975-.1769-114.0786-42.4931-127.0468-103.7699-1.93-9.1194-2.6563-18.4442-2.6562-27.7938.0002-41.6452,0-83.2904.0004-124.9356ZM124.9246,398.3722c21.9325-.7047,39.4882-4.807,56.3248-11.9071,26.2638-11.0756,45.1811-30.6908,61.0399-53.5989,14.7186-21.261,25.8641-44.583,37.7113-67.4604,10.3953-20.0738,20.1304-40.4736,33.1568-59.067,12.1604-17.3573,27.1633-30.8803,47.9177-37.2292,9.8655-3.018,20.0571-2.8453,30.1165-3.9673,9.3411-1.0419,16.1981-5.5499,20.4866-13.905,7.5154-14.6421-2.6836-34.8977-18.3199-35.982-22.1616-1.5368-43.3579,2.616-63.692,11.493-26.6296,11.6253-45.6056,31.762-61.5546,55.2425-12.0879,17.7961-21.2592,37.2335-31.3954,56.1333-12.3237,22.9784-22.9586,46.8835-38.1645,68.2879-13.0263,18.3362-28.8743,32.5439-51.2949,38.0852-8.6103,2.1281-17.4541,2.3874-26.1981,3.467-9.7176,1.1999-17.3524,5.798-21.2608,15.1453-3.8498,9.2072-2.7418,18.0601,3.5849,25.7934,6.4592,7.8953,15.2594,10.2155,21.5419,9.4694Z"/>
    <path class="cls-2" d="M124.9246,398.3722c-6.2825.7461-15.0827-1.5741-21.5419-9.4694-6.3267-7.7333-7.4347-16.5862-3.5849-25.7934,3.9084-9.3473,11.5432-13.9454,21.2608-15.1453,8.744-1.0796,17.5878-1.3389,26.1981-3.467,22.4206-5.5413,38.2686-19.749,51.2949-38.0852,15.206-21.4044,25.8409-45.3094,38.1645-68.2879,10.1362-18.8997,19.3075-38.3372,31.3954-56.1333,15.949-23.4805,34.925-43.6173,61.5546-55.2425,20.3342-8.877,41.5304-13.0298,63.692-11.493,15.6363,1.0843,25.8353,21.3399,18.3199,35.982-4.2885,8.3551-11.1455,12.8631-20.4866,13.905-10.0594,1.122-20.251.9494-30.1165,3.9673-20.7544,6.349-35.7573,19.872-47.9177,37.2292-13.0264,18.5934-22.7615,38.9932-33.1568,59.067-11.8472,22.8774-22.9927,46.1994-37.7113,67.4604-15.8588,22.9081-34.7761,42.5233-61.0399,53.5989-16.8366,7.1001-34.3922,11.2024-56.3248,11.9071Z"/>
  </g>
</svg>