<?xml version="1.0" encoding="UTF-8"?>
<svg id="Layer_2" data-name="Layer 2" xmlns="http://www.w3.org/2000/svg" viewBox="0 0 143.2832 156.481">
  <defs>
    <style>
      .cls-1 {
        fill: #201b56;
        stroke-width: 0px;
      }
    </style>
  </defs>
  <g id="Layer_10" data-name="Layer 10">
    <g>
      <g>
        <path class="cls-1" d="M44.4155,156.3758c-14.5012-1.177-14.5118-12.8564-14.5118-27.1001v-48.028c0-13.5258.007-24.741,12.424-26.8457-16.5099-.3039-19.2006-8.7873-19.6392-20.2211h-.1718c-.4402,11.4766-3.1516,19.9793-19.8274,20.2228,12.4076,2.1087,12.4147,13.3216,12.4147,26.8439v48.028c0,14.4355-.0091,26.2386-15.1041,27.1431v.0622h44.4155v-.1052Z"/>
        <path class="cls-1" d="M128.8072,129.2757h-.0179V26.9161C128.7893,13.2057,128.8095,1.8786,141.7437,0h-42.8759v.1049c14.4027,1.169,14.511,12.6993,14.5116,26.8112h.0001v42.5945c0,15.0251,0,27.2053-17.0209,27.2053s-17.021-12.1802-17.021-27.2053c0-1.915.0005-3.7829.0357-5.5861v-31.1331c-.0352-1.8032-.0357-3.6711-.0357-5.5861,0-14.2437.0106-25.9231,14.5118-27.1001V0h-45.8012c14.4743,2.3146,15.8617,13.8593,15.8617,27.2053,0,13.596-.0011,24.862-15.3042,26.8822,15.3359.793,15.3399,12.6482,15.3399,27.1602v48.028c0,14.2437-.0106,25.9231-14.5118,27.1002v.1052h44.4155v-.1078c-14.4658-1.1931-14.476-12.8654-14.476-27.0975,0-15.0251,0-27.2053,17.021-27.2053s17.0209,12.1802,17.0209,27.2053c0,14.2553-.0109,25.9418-14.5475,27.1027v.1026h44.4154v-.1078c-14.4658-1.1931-14.476-12.8654-14.476-27.0975Z"/>
      </g>
      <path class="cls-1" d="M23.1503,0c-7.4688,0,5.4201,0-2.0205,0-3.8245,0-11.1922,2.8382-11.1922,10.9341,0,11.0203,12.6651,10.4936,12.6651,23.0206,0-12.5271,12.6651-12.6302,12.6651-23.0206C35.2677,2.8382,26.9748,0,23.1503,0Z"/>
    </g>
  </g>
</svg>