<?xml version="1.0" encoding="UTF-8"?>
<svg id="Layer_2" data-name="Layer 2" xmlns="http://www.w3.org/2000/svg" viewBox="0 0 83.4491 91.1355">
  <defs>
    <style>
      .cls-1 {
        fill: #190f32;
      }
    </style>
  </defs>
  <g id="Layer_1-2" data-name="Layer 1">
    <g>
      <path class="cls-1" d="m25.8679,91.0743c-8.4456-.6855-8.4518-7.4877-8.4518-15.7833v-27.9718c0-7.8775.0041-14.4093,7.2358-15.6351-9.6155-.177-11.1825-5.1178-11.438-11.7769h-.1001c-.2564,6.6841-1.8355,11.6361-11.5476,11.7779,7.2263,1.2281,7.2304,7.7586,7.2304,15.6341v27.9718c0,8.4074-.0053,15.2815-8.7967,15.8083v.0362h25.8679v-.0613Z"/>
      <path class="cls-1" d="m75.0182,75.291h-.0104V15.6761C75.0077,7.6911,75.0195,1.0941,82.5524,0h-24.9712v.0611c8.3882.6808,8.4513,7.3962,8.4516,15.615h0v24.8073c0,8.7507,0,15.8446-9.9131,15.8446s-9.9131-7.0939-9.9131-15.8446c0-1.1153.0003-2.2032.0208-3.2534v-18.1321c-.0205-1.0502-.0208-2.1381-.0208-3.2534,0-8.2956.0062-15.0978,8.4518-15.7833V0h-25.8679v.2588c8.4299,1.348,8.4309,7.813,8.4309,15.5857,0,7.9184-.0006,14.4798-8.9133,15.6564,8.9317.4619,8.9341,7.3664,8.9341,15.8183v27.9718c0,8.2956-.0062,15.0978-8.4518,15.7833v.0612h25.8679v-.0628c-8.425-.6949-8.4309-7.4929-8.4309-15.7818,0-8.7507,0-15.8446,9.9131-15.8446s9.9131,7.0939,9.9131,15.8446c0,8.3024-.0064,15.1087-8.4725,15.7848v.0597h25.8678v-.0628c-8.425-.6949-8.4309-7.4929-8.4309-15.7818Z"/>
    </g>
    <path class="cls-1" d="m18.3326,0c-4.3499,0-5.0367,3.2402-5.1459,4.2825-.0156-.0039-.0311-.0104-.0469-.0116-.1132-1.055-.8112-4.2709-5.1447-4.2709C5.7678,0,3.0934,1.1141,3.0934,5.8292c0,7.2131,10.0706,6.6504,10.0706,13.9462,0-7.2958,10.0706-6.9606,10.0706-13.9462,0-4.7151-2.6744-5.8292-4.9019-5.8292Z"/>
  </g>
</svg>