<svg xmlns="http://www.w3.org/2000/svg" viewBox="0 0 277.94 303.54"><defs><style>.cls-1{fill:#fff;}.cls-2{fill:#f3807f;}</style></defs><g id="Layer_2" data-name="Layer 2"><g id="Layer_1-2" data-name="Layer 1"><path class="cls-1" d="M86.16,303.34C58,301.05,58,278.4,58,250.77V157.6c0-26.23,0-48,24.1-52.07-32-.59-37.25-17-38.1-39.23h-.33c-.86,22.27-6.12,38.76-38.46,39.23,24.06,4.09,24.08,25.84,24.08,52.07v93.17c0,28,0,50.89-29.3,52.65v.12H86.16Z"/><path class="cls-1" d="M249.86,250.77h0V52.21c0-26.59,0-48.57,25.13-52.21H191.78V.2c27.94,2.27,28.15,24.64,28.15,52h0v82.63c0,29.14,0,52.77-33,52.77s-33-23.63-33-52.77c0-3.72,0-7.34.07-10.84V63.61c-.07-3.5-.07-7.12-.07-10.84,0-27.63,0-50.28,28.15-52.57V0H95.89V.86C124,5.35,124,26.88,124,52.77c0,26.38,0,48.23-29.69,52.15C124,106.46,124,129.45,124,157.6v93.17c0,27.63,0,50.28-28.15,52.57v.2h86.16v-.21C154,301,154,278.37,154,250.77c0-29.15,0-52.78,33-52.78s33,23.63,33,52.78c0,27.65,0,50.32-28.22,52.57v.2h86.16v-.21C249.88,301,249.86,278.37,249.86,250.77Z"/><path class="cls-2" d="M43.84,15.35S43.8,0,61.06,0c7.42,0,16.33,3.71,16.33,19.42,0,23.26-33.55,22.15-33.55,46.44"/><path class="cls-2" d="M43.84,15.35S43.88,0,26.63,0C19.21,0,10.3,3.71,10.3,19.42c0,24,33.54,22.15,33.54,46.44"/></g></g></svg>